<svg id="svg" version="1.1" xmlns="http://www.w3.org/2000/svg" xmlns:xlink="http://www.w3.org/1999/xlink" width="400" height="400" viewBox="0, 0, 400,400"><g id="svgg"><path id="path0" d="M262.190 82.395 C 258.665 82.913,248.683 86.261,244.800 88.226 C 223.642 98.938,211.960 114.610,203.225 144.000 C 199.048 158.054,200.866 156.547,187.736 156.839 C 175.847 157.105,174.857 157.280,172.722 159.495 C 169.529 162.808,167.893 170.459,169.825 173.046 C 171.867 175.781,171.865 175.780,182.928 176.000 C 188.468 176.110,193.248 176.360,193.551 176.555 C 194.253 177.008,193.953 180.188,192.810 184.400 C 192.363 186.050,191.639 189.073,191.202 191.119 C 190.765 193.164,190.246 195.144,190.047 195.519 C 189.849 195.893,189.385 197.730,189.015 199.600 C 188.645 201.470,188.004 204.170,187.591 205.600 C 187.177 207.030,186.539 209.460,186.174 211.000 C 185.809 212.540,185.094 215.510,184.586 217.600 C 184.077 219.690,183.276 223.020,182.805 225.000 C 182.335 226.980,181.520 230.310,180.995 232.400 C 179.404 238.738,178.782 241.280,178.160 244.000 C 177.526 246.775,175.671 253.723,174.423 258.000 C 174.005 259.430,173.547 261.230,173.403 262.000 C 173.150 263.361,171.963 267.306,170.335 272.200 C 169.896 273.520,169.199 275.770,168.787 277.200 C 164.283 292.843,164.894 292.527,139.000 292.590 C 119.813 292.637,119.518 292.672,116.656 295.234 C 109.910 301.272,112.948 313.870,122.212 318.270 C 126.899 320.496,138.885 321.066,144.940 319.351 C 151.001 317.634,152.438 317.163,155.000 316.053 C 160.330 313.744,161.846 312.896,168.200 308.673 C 177.416 302.547,185.436 293.951,191.870 283.304 C 197.708 273.643,202.054 261.998,206.166 245.000 C 206.538 243.460,207.282 240.490,207.818 238.400 C 209.354 232.410,209.959 229.992,210.621 227.200 C 210.960 225.770,211.598 223.250,212.039 221.600 C 212.480 219.950,213.182 217.160,213.599 215.400 C 214.951 209.699,215.615 207.057,216.465 204.000 C 216.924 202.350,217.561 199.658,217.880 198.017 C 218.199 196.377,218.629 194.719,218.836 194.333 C 219.043 193.946,219.558 191.959,219.982 189.915 C 220.406 187.872,221.010 185.478,221.325 184.595 C 221.640 183.712,222.022 182.182,222.173 181.195 C 222.980 175.943,222.813 176.000,237.309 176.000 C 253.615 176.000,254.346 175.690,256.162 167.996 C 257.818 160.982,258.079 158.780,257.382 157.716 L 256.782 156.800 243.413 156.800 C 226.946 156.800,227.658 157.170,229.843 149.745 C 230.417 147.795,231.117 145.210,231.400 144.000 C 233.089 136.764,236.116 126.234,237.150 124.000 C 237.608 123.010,237.986 121.909,237.991 121.554 C 237.996 121.199,238.331 120.479,238.736 119.954 C 239.141 119.429,239.656 118.460,239.880 117.800 C 242.610 109.779,249.417 105.823,257.142 107.769 C 258.384 108.081,261.110 108.541,263.200 108.789 C 265.290 109.037,268.960 109.608,271.355 110.057 C 281.829 112.022,289.009 106.710,288.995 97.006 C 288.980 86.151,277.863 80.092,262.190 82.395 " stroke="none" fill="#f9f9f9" fill-rule="evenodd"></path><path id="path1" d="M0.000 200.000 L 0.000 400.000 200.000 400.000 L 400.000 400.000 400.000 200.000 L 400.000 0.000 200.000 0.000 L 0.000 0.000 0.000 200.000 M274.788 82.398 C 286.357 84.592,292.266 94.243,287.606 103.330 C 284.490 109.405,279.309 111.550,271.355 110.057 C 268.960 109.608,265.290 109.037,263.200 108.789 C 261.110 108.541,258.384 108.081,257.142 107.769 C 249.417 105.823,242.610 109.779,239.880 117.800 C 239.656 118.460,239.141 119.429,238.736 119.954 C 238.331 120.479,237.996 121.199,237.991 121.554 C 237.986 121.909,237.608 123.010,237.150 124.000 C 236.116 126.234,233.089 136.764,231.400 144.000 C 231.117 145.210,230.417 147.795,229.843 149.745 C 227.658 157.170,226.946 156.800,243.413 156.800 L 256.782 156.800 257.382 157.716 C 258.079 158.780,257.818 160.982,256.162 167.996 C 254.346 175.690,253.615 176.000,237.309 176.000 C 222.813 176.000,222.980 175.943,222.173 181.195 C 222.022 182.182,221.640 183.712,221.325 184.595 C 221.010 185.478,220.406 187.872,219.982 189.915 C 219.558 191.959,219.043 193.946,218.836 194.333 C 218.629 194.719,218.199 196.377,217.880 198.017 C 217.561 199.658,216.924 202.350,216.465 204.000 C 215.615 207.057,214.951 209.699,213.599 215.400 C 213.182 217.160,212.480 219.950,212.039 221.600 C 211.598 223.250,210.960 225.770,210.621 227.200 C 209.959 229.992,209.354 232.410,207.818 238.400 C 207.282 240.490,206.538 243.460,206.166 245.000 C 202.468 260.289,199.111 269.779,193.820 279.901 C 187.963 291.108,178.300 301.960,168.200 308.673 C 161.846 312.896,160.330 313.744,155.000 316.053 C 152.438 317.163,151.001 317.634,144.940 319.351 C 138.885 321.066,126.899 320.496,122.212 318.270 C 112.948 313.870,109.910 301.272,116.656 295.234 C 119.518 292.672,119.813 292.637,139.000 292.590 C 164.894 292.527,164.283 292.843,168.787 277.200 C 169.199 275.770,169.896 273.520,170.335 272.200 C 171.963 267.306,173.150 263.361,173.403 262.000 C 173.547 261.230,174.005 259.430,174.423 258.000 C 175.671 253.723,177.526 246.775,178.160 244.000 C 178.782 241.280,179.404 238.738,180.995 232.400 C 181.520 230.310,182.335 226.980,182.805 225.000 C 183.276 223.020,184.077 219.690,184.586 217.600 C 185.094 215.510,185.809 212.540,186.174 211.000 C 186.539 209.460,187.177 207.030,187.591 205.600 C 188.004 204.170,188.645 201.470,189.015 199.600 C 189.385 197.730,189.849 195.893,190.047 195.519 C 190.246 195.144,190.765 193.164,191.202 191.119 C 191.639 189.073,192.363 186.050,192.810 184.400 C 193.953 180.188,194.253 177.008,193.551 176.555 C 193.248 176.360,188.468 176.110,182.928 176.000 C 171.865 175.780,171.867 175.781,169.825 173.046 C 167.893 170.459,169.529 162.808,172.722 159.495 C 174.857 157.280,175.847 157.105,187.736 156.839 C 200.866 156.547,199.048 158.054,203.225 144.000 C 211.281 116.892,221.060 102.556,239.000 91.549 C 245.427 87.606,247.348 86.775,257.590 83.515 C 262.146 82.065,270.255 81.538,274.788 82.398 " stroke="none" fill="#2f333e" fill-rule="evenodd"></path></g></svg>